<svg width="130" height="130" viewBox="0 0 130 130" fill="none" xmlns="http://www.w3.org/2000/svg">
<rect width="130" height="130" rx="65" fill="#211B59"/>
<path d="M85.6102 36.306V54.3236V57.1796C85.6094 57.7501 85.458 58.3105 85.171 58.8048C84.8839 59.2992 84.4713 59.7103 83.9743 59.9973L76.181 64.4186C77.9071 61.9204 78.3451 60.3998 78.4868 54.3939V39.8904C78.4863 39.1122 78.2788 38.348 77.8853 37.6749C77.4917 37.0018 76.9261 36.4437 76.2454 36.0568L68.1366 31.3991L73.0573 28.5815C73.7214 28.2019 74.4743 28.0021 75.2407 28.0021C76.0071 28.0021 76.76 28.2019 77.4241 28.5815L82.9115 31.7186C83.7265 32.1823 84.4046 32.85 84.8781 33.655C85.3517 34.4599 85.6041 35.374 85.6102 36.306Z" fill="white"/>
<path d="M103 57.4607V63.7797C103 64.7109 102.754 65.6257 102.286 66.433C101.818 67.2402 101.145 67.9115 100.334 68.3799L84.7793 77.2609L84.6505 77.3185L82.1129 78.7432C81.6219 79.0193 81.0671 79.1644 80.5027 79.1644C79.9383 79.1644 79.3836 79.0193 78.8925 78.7432L71.1637 74.3219C74.223 74.5519 75.7688 74.1622 81.0566 71.2934L93.7383 64.0289C94.4118 63.6357 94.9708 63.0756 95.3603 62.4036C95.7499 61.7315 95.9566 60.9706 95.9603 60.1953V50.9054L100.9 53.723C101.546 54.1134 102.078 54.6627 102.446 55.3177C102.814 55.9727 103.005 56.711 103 57.4607V57.4607Z" fill="white"/>
<path d="M92.7722 84.5063V90.1416C92.7711 90.9007 92.568 91.646 92.1835 92.3023C91.799 92.9586 91.2467 93.5026 90.5824 93.8793L85.0949 97.0356C84.28 97.4943 83.359 97.7354 82.422 97.7354C81.4851 97.7354 80.5641 97.4943 79.7492 97.0356L64.1949 88.0907C64.1544 88.0742 64.1172 88.0503 64.0854 88.0204L61.5607 86.5573C61.0639 86.2705 60.6519 85.8593 60.3659 85.3647C60.0799 84.8702 59.93 84.3098 59.9312 83.7396V74.9033C61.2193 77.6315 62.3464 78.7369 67.5119 81.8804L80.1936 89.1385C80.8707 89.5278 81.6394 89.7328 82.422 89.7328C83.2047 89.7328 83.9734 89.5278 84.6505 89.1385L92.7722 84.5063Z" fill="white"/>
<path d="M61.8634 98.6009L56.9427 101.419C56.2797 101.801 55.5264 102.003 54.7593 102.003C53.9923 102.003 53.2389 101.801 52.5759 101.419L47.0885 98.2815C46.2751 97.8171 45.5999 97.1476 45.1317 96.3408C44.6634 95.5339 44.4185 94.6186 44.422 93.6876V75.6956V72.8396C44.4247 72.268 44.5784 71.707 44.8677 71.2127C45.157 70.7183 45.5718 70.3077 46.0708 70.0219L53.7997 65.5814C52.08 68.0988 51.6356 69.6194 51.5068 75.6061V90.1288C51.5086 90.9067 51.7166 91.6704 52.1101 92.3433C52.5035 93.0162 53.0684 93.5745 53.7481 93.9624L61.8634 98.6009Z" fill="white"/>
<path d="M58.9007 55.6973C55.8414 55.4673 54.3149 55.8571 49.0078 58.7258L36.3454 65.9904C35.6648 66.3772 35.0992 66.9353 34.7056 67.6085C34.3121 68.2816 34.1046 69.0458 34.1041 69.8239V79.1138L29.1834 76.2962C28.5201 75.9141 27.9694 75.366 27.5863 74.7068C27.2032 74.0476 27.001 73.3003 27 72.5393V66.2715C26.9954 65.3394 27.2396 64.4228 27.708 63.6148C28.1764 62.8067 28.8521 62.1362 29.6664 61.6713L45.24 52.7263C45.2838 52.6914 45.3313 52.6614 45.3817 52.6369L47.8871 51.2249C48.3862 50.9485 48.9483 50.8033 49.5198 50.8033C50.0914 50.8033 50.6535 50.9485 51.1525 51.2249L58.9007 55.6973Z" fill="white"/>
<path d="M70.0688 46.254V55.1159C68.7807 52.3685 67.6536 51.2376 62.4882 48.1197L49.8065 40.8615C49.1272 40.4784 48.3593 40.277 47.578 40.277C46.7966 40.277 46.0287 40.4784 45.3495 40.8615L37.2278 45.5129V39.8776C37.2288 39.1159 37.4317 38.3679 37.816 37.7085C38.2004 37.0491 38.7527 36.5016 39.4176 36.1207L44.9051 32.9836C45.7169 32.5157 46.6391 32.2692 47.578 32.2692C48.5169 32.2692 49.4391 32.5157 50.2509 32.9836L65.8115 41.9285L65.9146 41.9796L68.4393 43.4619C68.9323 43.7465 69.3419 44.1537 69.6277 44.6434C69.9135 45.1331 70.0655 45.6882 70.0688 46.254V46.254Z" fill="white"/>
</svg>
